<svg id="svg" version="1.1" xmlns="http://www.w3.org/2000/svg" xmlns:xlink="http://www.w3.org/1999/xlink" width="400" height="300" viewBox="0, 0, 400,300"><g id="svgg"><path id="path0" d="M58.293 73.850 C 58.240 73.987,58.221 108.300,58.249 150.100 L 58.300 226.100 134.500 226.100 L 210.700 226.100 210.751 205.250 L 210.802 184.400 208.101 184.400 L 205.400 184.400 205.400 202.600 L 205.400 220.800 134.500 220.800 L 63.600 220.800 63.600 149.900 L 63.600 79.000 134.500 79.000 L 205.400 79.000 205.400 97.200 L 205.400 115.400 208.101 115.400 L 210.802 115.400 210.751 94.550 L 210.700 73.700 134.544 73.650 C 73.724 73.610,58.369 73.650,58.293 73.850 M195.890 120.479 C 187.746 122.458,183.940 133.510,186.992 146.318 C 187.199 147.187,187.353 147.900,187.334 147.902 C 187.315 147.903,186.530 148.418,185.590 149.044 C 174.360 156.524,174.310 172.512,185.500 177.897 C 191.083 180.583,199.959 180.101,206.208 176.771 L 207.731 175.960 208.916 176.557 C 213.830 179.035,221.966 180.203,227.911 179.283 L 228.723 179.158 228.327 176.429 C 228.109 174.928,227.911 173.672,227.887 173.639 C 227.864 173.605,226.889 173.685,225.722 173.816 C 222.153 174.218,217.952 173.520,214.550 171.960 C 212.958 171.230,213.009 171.384,213.976 170.228 C 216.819 166.828,219.460 161.636,221.500 155.433 C 222.384 152.743,222.539 152.956,219.300 152.407 C 217.870 152.164,216.558 151.927,216.385 151.881 C 216.130 151.812,215.983 152.211,215.622 153.948 C 214.542 159.142,212.143 164.346,209.373 167.500 C 208.587 168.396,208.674 168.416,206.998 166.950 C 202.926 163.388,198.745 157.287,196.281 151.313 L 195.627 149.727 197.311 148.783 C 204.427 144.793,208.857 138.779,209.626 132.063 C 210.565 123.849,204.182 118.465,195.890 120.479 M117.711 149.750 C 112.221 165.563,107.691 178.613,107.643 178.750 C 107.577 178.943,108.304 179.000,110.853 179.000 L 114.148 179.000 117.524 169.050 L 120.900 159.100 130.526 159.048 L 140.151 158.996 142.348 165.448 C 143.556 168.997,145.073 173.498,145.718 175.450 L 146.891 179.000 150.967 179.000 C 154.255 179.000,155.023 178.949,154.942 178.737 C 154.782 178.321,136.215 124.699,135.556 122.750 L 134.964 121.000 131.329 121.000 L 127.693 121.000 117.711 149.750 M251.886 121.516 C 252.841 125.322,252.800 123.922,252.800 152.422 L 252.800 179.000 256.499 179.000 L 260.197 179.000 260.249 163.869 L 260.300 148.737 271.800 163.869 L 283.300 179.000 287.864 179.000 L 292.427 179.000 292.032 178.450 C 291.814 178.148,286.364 170.925,279.921 162.400 C 273.477 153.875,268.244 146.794,268.291 146.664 C 268.338 146.534,273.301 140.864,279.319 134.064 C 285.337 127.264,290.396 121.543,290.561 121.350 C 290.846 121.018,290.662 121.000,287.063 121.000 L 283.263 121.000 271.782 133.921 L 260.300 146.841 260.249 133.921 L 260.197 121.000 255.977 121.000 L 251.757 121.000 251.886 121.516 M200.937 125.755 C 204.786 128.496,202.133 139.183,196.579 143.310 C 194.144 145.119,194.260 145.117,193.892 143.361 C 192.464 136.549,193.319 128.647,195.731 126.361 C 197.052 125.110,199.612 124.812,200.937 125.755 M130.636 153.552 C 126.402 153.581,122.908 153.575,122.872 153.539 C 122.820 153.487,130.046 132.028,130.529 130.800 C 130.593 130.635,132.376 135.675,134.490 142.000 L 138.333 153.500 130.636 153.552 M190.731 156.555 C 193.443 162.114,196.384 166.239,200.627 170.434 L 202.987 172.768 201.508 173.384 C 197.719 174.961,193.231 175.023,190.206 173.540 C 184.027 170.510,182.594 159.623,187.678 154.332 C 189.082 152.871,188.853 152.704,190.731 156.555 " stroke="none" fill="#d37bfb" fill-rule="evenodd"></path><path id="path1" d="M0.000 150.000 L 0.000 300.000 200.000 300.000 L 400.000 300.000 400.000 150.000 L 400.000 0.000 200.000 0.000 L 0.000 0.000 0.000 150.000 M210.800 94.600 L 210.800 115.600 208.101 115.600 L 205.402 115.600 205.351 97.350 L 205.300 79.100 134.450 79.050 L 63.600 78.999 63.600 149.900 L 63.600 220.801 134.450 220.750 L 205.300 220.700 205.351 202.450 L 205.402 184.200 208.101 184.200 L 210.800 184.200 210.800 205.200 L 210.800 226.200 134.500 226.200 L 58.200 226.200 58.200 149.900 L 58.200 73.600 134.500 73.600 L 210.800 73.600 210.800 94.600 M202.067 120.297 C 214.490 122.929,211.430 141.299,197.300 148.914 C 196.530 149.329,195.871 149.690,195.836 149.715 C 195.718 149.801,196.848 152.482,197.844 154.477 C 200.254 159.306,203.557 163.735,207.136 166.939 L 208.627 168.273 209.111 167.686 C 212.239 163.897,214.733 158.428,215.613 153.430 C 215.755 152.622,215.980 151.918,216.114 151.867 C 216.344 151.779,222.216 152.749,222.367 152.900 C 222.569 153.102,219.995 160.068,218.819 162.500 C 217.235 165.779,216.197 167.516,214.544 169.655 C 213.883 170.510,213.378 171.241,213.421 171.280 C 215.275 172.947,222.420 174.208,226.593 173.605 C 228.158 173.379,227.907 173.008,228.412 176.285 C 228.908 179.498,229.004 179.303,226.810 179.529 C 220.847 180.142,213.560 178.999,209.097 176.749 L 207.732 176.060 206.116 176.918 C 198.326 181.055,187.705 180.646,182.328 176.002 C 173.472 168.354,175.788 154.903,187.170 147.870 C 187.208 147.846,187.058 147.033,186.837 146.064 C 183.105 129.727,190.169 117.776,202.067 120.297 M144.514 148.300 C 149.726 163.370,154.257 176.444,154.581 177.354 L 155.170 179.008 150.953 178.954 L 146.737 178.900 143.447 169.048 L 140.158 159.196 130.555 159.248 L 120.951 159.300 117.626 169.100 L 114.300 178.900 110.861 178.955 L 107.422 179.009 107.988 177.355 C 108.300 176.445,112.625 164.000,117.601 149.700 C 122.577 135.400,126.871 123.046,127.143 122.246 L 127.639 120.791 131.338 120.846 L 135.036 120.900 144.514 148.300 M260.449 133.633 L 260.500 146.465 271.900 133.634 L 283.300 120.803 287.167 120.801 C 289.456 120.801,291.006 120.876,290.967 120.985 C 290.912 121.138,275.210 138.931,269.765 145.011 L 268.229 146.726 275.765 156.713 C 279.910 162.206,285.390 169.468,287.943 172.850 L 292.585 179.000 287.843 178.988 L 283.100 178.976 271.800 164.069 L 260.500 149.161 260.449 164.081 L 260.397 179.000 256.599 179.000 L 252.800 179.000 252.799 152.650 L 252.798 126.300 252.292 123.900 C 252.014 122.580,251.739 121.343,251.680 121.150 C 251.580 120.824,251.876 120.800,255.985 120.800 L 260.397 120.800 260.449 133.633 M197.325 125.482 C 195.539 126.146,194.283 128.162,193.691 131.318 C 193.102 134.455,193.631 144.600,194.383 144.600 C 195.121 144.600,198.273 141.833,199.488 140.119 C 204.535 132.999,203.107 123.336,197.325 125.482 M130.526 131.200 C 130.199 132.012,123.000 153.271,123.000 153.424 C 123.000 153.522,126.353 153.600,130.613 153.600 C 137.774 153.600,138.220 153.579,138.115 153.250 C 135.954 146.500,130.613 130.983,130.526 131.200 M187.701 154.450 C 182.602 160.078,184.110 170.391,190.488 173.505 C 193.471 174.962,197.498 174.880,201.488 173.283 L 202.821 172.749 200.587 170.543 C 195.946 165.961,192.220 160.506,189.525 154.350 C 188.913 152.951,189.067 152.942,187.701 154.450 " stroke="none" fill="#2c044c" fill-rule="evenodd"></path><path id="path2" d="M260.249 133.650 C 260.203 145.815,260.251 147.126,260.719 146.369 C 260.807 146.227,260.774 146.192,260.632 146.280 C 260.461 146.386,260.390 143.172,260.350 133.561 L 260.297 120.700 260.249 133.650 M193.271 136.100 C 193.270 137.090,193.304 137.520,193.346 137.056 C 193.388 136.592,193.389 135.782,193.347 135.256 C 193.306 134.730,193.272 135.110,193.271 136.100 M185.846 136.200 C 185.846 136.585,185.888 136.743,185.938 136.550 C 185.988 136.358,185.988 136.042,185.938 135.850 C 185.888 135.657,185.846 135.815,185.846 136.200 M185.854 138.600 C 185.854 139.095,185.893 139.297,185.941 139.050 C 185.989 138.803,185.989 138.398,185.941 138.150 C 185.893 137.903,185.854 138.105,185.854 138.600 M203.400 144.300 C 202.914 144.795,202.562 145.200,202.617 145.200 C 202.672 145.200,203.114 144.795,203.600 144.300 C 204.086 143.805,204.438 143.400,204.383 143.400 C 204.328 143.400,203.886 143.805,203.400 144.300 M260.247 164.050 C 260.272 172.328,260.317 176.670,260.346 173.700 C 260.484 159.623,260.486 149.000,260.350 149.000 C 260.268 149.000,260.221 155.773,260.247 164.050 M125.750 159.150 C 128.417 159.181,132.782 159.181,135.450 159.150 C 138.118 159.118,135.935 159.093,130.600 159.093 C 125.265 159.093,123.083 159.118,125.750 159.150 M199.600 169.663 C 199.600 169.697,199.893 169.990,200.250 170.313 L 200.900 170.900 200.313 170.250 C 199.765 169.644,199.600 169.508,199.600 169.663 M222.650 179.743 C 222.953 179.789,223.447 179.789,223.750 179.743 C 224.053 179.697,223.805 179.660,223.200 179.660 C 222.595 179.660,222.347 179.697,222.650 179.743 " stroke="none" fill="#642888" fill-rule="evenodd"></path><path id="path3" d="M206.641 115.548 C 207.379 115.586,208.639 115.587,209.441 115.549 C 210.244 115.511,209.640 115.479,208.100 115.479 C 206.560 115.479,205.904 115.510,206.641 115.548 M198.653 120.144 C 198.957 120.189,199.407 120.188,199.653 120.141 C 199.899 120.093,199.650 120.056,199.100 120.057 C 198.550 120.059,198.349 120.098,198.653 120.144 M129.550 120.949 C 130.567 120.985,132.233 120.985,133.250 120.949 C 134.268 120.913,133.435 120.883,131.400 120.883 C 129.365 120.883,128.532 120.913,129.550 120.949 M253.850 120.949 C 255.032 120.985,256.968 120.985,258.150 120.949 C 259.332 120.914,258.365 120.885,256.000 120.885 C 253.635 120.885,252.668 120.914,253.850 120.949 M285.250 120.949 C 286.322 120.985,288.078 120.985,289.150 120.949 C 290.223 120.913,289.345 120.884,287.200 120.884 C 285.055 120.884,284.178 120.913,285.250 120.949 M202.657 130.900 C 202.659 131.450,202.698 131.651,202.744 131.347 C 202.789 131.043,202.788 130.593,202.741 130.347 C 202.693 130.101,202.656 130.350,202.657 130.900 M177.050 163.500 C 177.053 163.940,177.094 164.096,177.141 163.848 C 177.189 163.599,177.187 163.239,177.137 163.048 C 177.087 162.856,177.048 163.060,177.050 163.500 M177.046 165.000 C 177.046 165.385,177.088 165.543,177.138 165.350 C 177.188 165.158,177.188 164.843,177.138 164.650 C 177.088 164.458,177.046 164.615,177.046 165.000 M205.500 165.600 C 205.930 166.040,206.326 166.400,206.381 166.400 C 206.436 166.400,206.130 166.040,205.700 165.600 C 205.270 165.160,204.874 164.800,204.819 164.800 C 204.764 164.800,205.070 165.160,205.500 165.600 M222.850 173.946 C 223.263 173.989,223.938 173.989,224.350 173.946 C 224.763 173.903,224.425 173.867,223.600 173.867 C 222.775 173.867,222.438 173.903,222.850 173.946 M193.146 179.744 C 193.501 179.789,194.131 179.789,194.546 179.746 C 194.960 179.703,194.670 179.667,193.900 179.666 C 193.130 179.665,192.790 179.700,193.146 179.744 M206.641 184.348 C 207.379 184.386,208.639 184.387,209.441 184.349 C 210.244 184.311,209.640 184.279,208.100 184.279 C 206.560 184.279,205.904 184.310,206.641 184.348 " stroke="none" fill="#8440ac" fill-rule="evenodd"></path><path id="path4" d="" stroke="none" fill="#7c3ca3" fill-rule="evenodd"></path></g></svg>